<svg xmlns="http://www.w3.org/2000/svg" xmlns:xlink="http://www.w3.org/1999/xlink" xmlns:lucid="lucid" width="1760" height="1360"><g transform="translate(0 0)" lucid:page-tab-id="0_0"><path d="M910 100c5.52 0 10 4.48 10 10v80c0 5.52-4.48 10-10 10H730c-5.52 0-10-4.48-10-10v-80c0-5.52 4.48-10 10-10z" stroke="#666" fill="#d7e9ff"/><path d="M720 146h200" stroke="#666" fill="none"/><use xlink:href="#a" transform="matrix(1,0,0,1,740,100) translate(70.6962962962963 27.266666666666666)"/><use xlink:href="#b" transform="matrix(1,0,0,1,740,156) translate(26.36296296296296 21.266666666666666)"/><use xlink:href="#c" transform="matrix(1,0,0,1,740,156) translate(66.28888888888889 21.266666666666666)"/><path d="M910 240c5.52 0 10 4.48 10 10v80c0 5.52-4.48 10-10 10H730c-5.52 0-10-4.48-10-10v-80c0-5.52 4.48-10 10-10z" stroke="#666" fill="#d7e9ff"/><path d="M720 286h200" stroke="#666" fill="none"/><use xlink:href="#d" transform="matrix(1,0,0,1,740,240) translate(70.6962962962963 27.266666666666666)"/><use xlink:href="#e" transform="matrix(1,0,0,1,740,296) translate(2.3074074074074105 13.866666666666667)"/><use xlink:href="#f" transform="matrix(1,0,0,1,740,296) translate(81.3814814814815 13.866666666666667)"/><use xlink:href="#g" transform="matrix(1,0,0,1,740,296) translate(136.90000000000003 13.866666666666667)"/><use xlink:href="#h" transform="matrix(1,0,0,1,740,296) translate(50.425925925925924 29.866666666666667)"/><path d="M910 380c5.52 0 10 4.48 10 10v80c0 5.52-4.48 10-10 10H730c-5.52 0-10-4.48-10-10v-80c0-5.52 4.48-10 10-10z" stroke="#666" fill="#d7e9ff"/><path d="M720 426h200" stroke="#666" fill="none"/><use xlink:href="#i" transform="matrix(1,0,0,1,740,380) translate(70.6962962962963 27.266666666666666)"/><use xlink:href="#j" transform="matrix(1,0,0,1,740,436) translate(9.029629629629625 21.266666666666666)"/><use xlink:href="#k" transform="matrix(1,0,0,1,740,436) translate(58.474074074074075 21.266666666666666)"/><path d="M910 520c5.52 0 10 4.48 10 10v80c0 5.52-4.48 10-10 10H730c-5.52 0-10-4.48-10-10v-80c0-5.52 4.48-10 10-10z" stroke="#666" fill="#d7e9ff"/><path d="M720 566h200" stroke="#666" fill="none"/><use xlink:href="#l" transform="matrix(1,0,0,1,740,520) translate(70.6962962962963 27.266666666666666)"/><use xlink:href="#m" transform="matrix(1,0,0,1,740,576) translate(59.640740740740746 21.266666666666666)"/><path d="M910 660c5.52 0 10 4.48 10 10v80c0 5.52-4.48 10-10 10H730c-5.52 0-10-4.48-10-10v-80c0-5.52 4.48-10 10-10z" stroke="#666" fill="#d7e9ff"/><path d="M720 706h200" stroke="#666" fill="none"/><use xlink:href="#n" transform="matrix(1,0,0,1,740,660) translate(70.6962962962963 27.266666666666666)"/><use xlink:href="#o" transform="matrix(1,0,0,1,740,716) translate(45.21481481481482 21.266666666666666)"/><path d="M910 800c5.52 0 10 4.48 10 10v80c0 5.52-4.48 10-10 10H730c-5.52 0-10-4.48-10-10v-80c0-5.52 4.48-10 10-10z" stroke="#666" fill="#d7e9ff"/><path d="M720 846h200" stroke="#666" fill="none"/><use xlink:href="#p" transform="matrix(1,0,0,1,740,800) translate(70.6962962962963 27.266666666666666)"/><use xlink:href="#q" transform="matrix(1,0,0,1,740,856) translate(19.696296296296296 13.866666666666667)"/><use xlink:href="#r" transform="matrix(1,0,0,1,740,856) translate(68.47407407407408 13.866666666666667)"/><use xlink:href="#s" transform="matrix(1,0,0,1,740,856) translate(47.87037037037038 29.866666666666667)"/><path d="M910 940c5.52 0 10 4.48 10 10v80c0 5.52-4.48 10-10 10H730c-5.52 0-10-4.48-10-10v-80c0-5.52 4.48-10 10-10z" stroke="#666" fill="#d7e9ff"/><path d="M720 986h200" stroke="#666" fill="none"/><use xlink:href="#t" transform="matrix(1,0,0,1,740,940) translate(70.6962962962963 27.266666666666666)"/><use xlink:href="#u" transform="matrix(1,0,0,1,740,996) translate(17.529629629629625 21.266666666666666)"/><use xlink:href="#v" transform="matrix(1,0,0,1,740,996) translate(62.64074074074073 21.266666666666666)"/><path d="M910 1080c5.52 0 10 4.48 10 10v80c0 5.52-4.48 10-10 10H730c-5.52 0-10-4.48-10-10v-80c0-5.52 4.48-10 10-10z" stroke="#666" fill="#d7e9ff"/><path d="M720 1126h200" stroke="#666" fill="none"/><use xlink:href="#w" transform="matrix(1,0,0,1,740,1080) translate(70.6962962962963 27.266666666666666)"/><use xlink:href="#x" transform="matrix(1,0,0,1,740,1136) translate(4.937037037037044 21.266666666666666)"/><use xlink:href="#k" transform="matrix(1,0,0,1,740,1136) translate(62.56666666666668 21.266666666666666)"/><path d="M200 840h160v60H200z" stroke="#333" fill="#fff"/><use xlink:href="#y" transform="matrix(1,0,0,1,212,852) translate(35.048148148148144 20.616666666666667)"/><path d="M477.4 150.5H382v720h-21v-1h20v-720h96.4zm225.72 0H527.7v-1h175.42z" stroke="#333" stroke-width=".05" fill="#333"/><path d="M361 870.5h-.5v-1h.5z" fill="#333"/><path d="M361.04 870.52h-.56v-1.04h.56zm-.52-1v.96h.47v-.96z" stroke="#333" stroke-width=".05" fill="#333"/><path d="M717.88 150l-14.26 4.63v-9.26z" fill="#333"/><path d="M719.5 150l-16.38 5.32v-10.64zm-15.38 3.95l12.14-3.95-12.14-3.95z" stroke="#333" stroke-width=".05" fill="#333"/><use xlink:href="#z" transform="matrix(1,0,0,1,477.399787254452,140.4) translate(0 13.866666666666667)"/><path d="M535.25 290.5H280.5V839h-1V289.5h255.75zm167.87 0H585.55v-1h117.57z" stroke="#333" stroke-width=".05" fill="#333"/><path d="M280.5 839.5h-1v-.5h1z" fill="#333"/><path d="M280.52 839.52h-1.04v-.56h1.04zm-1-.5v.46h.96V839z" stroke="#333" stroke-width=".05" fill="#333"/><path d="M717.88 290l-14.26 4.63v-9.26z" fill="#333"/><path d="M719.5 290l-16.38 5.32v-10.64zm-15.38 3.95l12.14-3.95-12.14-3.95z" stroke="#333" stroke-width=".05" fill="#333"/><use xlink:href="#z" transform="matrix(1,0,0,1,535.2514337676847,280.4) translate(0 13.866666666666667)"/><path d="M501.88 423.8H303.8V839h-1V422.8h199.07zm201.24 0h-151.7v-1h151.7z" stroke="#333" stroke-width=".05" fill="#333"/><path d="M303.8 839.5h-1v-.5h1z" fill="#333"/><path d="M303.82 839.52h-1.05v-.56h1.05zm-1-.5v.46h.95V839z" stroke="#333" stroke-width=".05" fill="#333"/><path d="M717.88 423.3l-14.26 4.63v-9.27z" fill="#333"/><path d="M719.5 423.3l-16.38 5.32v-10.64zm-15.38 3.95l12.14-3.95-12.14-3.95z" stroke="#333" stroke-width=".05" fill="#333"/><use xlink:href="#A" transform="matrix(1,0,0,1,501.87501033866926,413.6986416364892) translate(0 13.866666666666667)"/><path d="M280.5 1129.5h209.6v1H279.5V901h1zm422.62 0v1H527.85v-1z" stroke="#333" stroke-width=".05" fill="#333"/><path d="M280.5 901h-1v-.5h1z" fill="#333"/><path d="M280.52 901.04h-1.04v-.56h1.04zm-1-.5v.45h.96v-.48z" stroke="#333" stroke-width=".05" fill="#333"/><path d="M717.88 1130l-14.26 4.63v-9.27z" fill="#333"/><path d="M719.5 1130l-16.38 5.32v-10.64zm-15.38 3.95l12.14-3.95-12.14-3.95z" stroke="#333" stroke-width=".05" fill="#333"/><use xlink:href="#B" transform="matrix(1,0,0,1,490.1055257559222,1120.4) translate(0 13.866666666666667)"/><path d="M323.25 989.5h127.98v1H322.25V901h1zm379.87 0v1h-201.6v-1z" stroke="#333" stroke-width=".05" fill="#333"/><path d="M323.25 901h-1v-.5h1z" fill="#333"/><path d="M323.27 901.04h-1.05v-.56h1.05zm-1-.5v.45h.95v-.48z" stroke="#333" stroke-width=".05" fill="#333"/><path d="M717.88 990l-14.26 4.63v-9.26z" fill="#333"/><path d="M719.5 990l-16.38 5.32v-10.64zm-15.38 3.95l12.14-3.95-12.14-3.95z" stroke="#333" stroke-width=".05" fill="#333"/><use xlink:href="#z" transform="matrix(1,0,0,1,451.22608453758073,980.4) translate(0 13.866666666666667)"/><path d="M451.7 901H361v-1h90.7zm251.42-50.5H540.5V901h-38.52v-1h37.52v-50.5h163.62z" stroke="#333" stroke-width=".05" fill="#333"/><path d="M361 901h-3.5v-.5h3v-.5h.5z" fill="#333"/><path d="M361.04 901.02h-3.56v-.54h3v-.5h.56zm-.52-1v.5h-3v.46H361V900z" stroke="#333" stroke-width=".05" fill="#333"/><path d="M717.88 850l-14.26 4.63v-9.26z" fill="#333"/><path d="M719.5 850l-16.38 5.32v-10.64zm-15.38 3.95l12.14-3.95-12.14-3.95z" stroke="#333" stroke-width=".05" fill="#333"/><use xlink:href="#z" transform="matrix(1,0,0,1,451.68794435968175,890.9) translate(0 13.866666666666667)"/><path d="M512.75 570.5h-284.4V839h-1V569.5h285.4zm190.37 0H563.05v-1h140.07z" stroke="#333" stroke-width=".05" fill="#333"/><path d="M228.35 839.5h-1v-.5h1z" fill="#333"/><path d="M228.38 839.52h-1.06v-.56h1.06zm-1-.5v.46h.94V839z" stroke="#333" stroke-width=".05" fill="#333"/><path d="M717.88 570l-14.26 4.63v-9.26z" fill="#333"/><path d="M719.5 570l-16.38 5.32v-10.64zm-15.38 3.95l12.14-3.95-12.14-3.95z" stroke="#333" stroke-width=".05" fill="#333"/><use xlink:href="#z" transform="matrix(1,0,0,1,512.7535712347608,560.4) translate(0 13.866666666666667)"/><path d="M1380 620h160v90h-160z" stroke="#333" fill="#fff"/><use xlink:href="#C" transform="matrix(1,0,0,1,1392,632) translate(41.714814814814815 36.55416666666667)"/><path d="M1160 664.5h219v1h-220v-515h-55.85v-1H1160zm-223.12-514v-1h128.53v1z" stroke="#333" stroke-width=".05" fill="#333"/><path d="M1379.5 665.5h-.5v-1h.5z" fill="#333"/><path d="M1379.53 665.52h-.57v-1.04h.57zm-.52-1v.96h.47v-.96z" stroke="#333" stroke-width=".05" fill="#333"/><path d="M936.38 154.63L922.12 150l14.26-4.63z" fill="#333"/><path d="M936.88 155.32L920.5 150l16.38-5.32zM923.74 150l12.14 3.95v-7.9z" stroke="#333" stroke-width=".05" fill="#333"/><use xlink:href="#B" transform="matrix(1,0,0,1,1065.4080105264031,140.4) translate(0 13.866666666666667)"/><path d="M1210.5 691.3H1379v1h-169.5V290.5h-123.08v-1h124.08zM936.88 290.5v-1h106.7v1z" stroke="#333" stroke-width=".05" fill="#333"/><path d="M1379.5 692.3h-.5v-1h.5z" fill="#333"/><path d="M1379.53 692.33h-.57v-1.05h.57zm-.52-1v.95h.47v-.95z" stroke="#333" stroke-width=".05" fill="#333"/><path d="M936.38 294.63L922.12 290l14.26-4.63z" fill="#333"/><path d="M936.88 295.32L920.5 290l16.38-5.32zM923.74 290l12.14 3.95v-7.9z" stroke="#333" stroke-width=".05" fill="#333"/><use xlink:href="#D" transform="matrix(1,0,0,1,1043.5685727997702,280.4) translate(0 13.866666666666667)"/><path d="M1328.95 850.5H936.88v-1h392.07zm65.1 0h-27.36v-1h26.36V711h1z" stroke="#333" stroke-width=".05" fill="#333"/><path d="M1394.06 711h-1v-.5h1z" fill="#333"/><path d="M1394.1 711.04h-1.06v-.56h1.05zm-1-.5v.45h.94v-.48z" stroke="#333" stroke-width=".05" fill="#333"/><path d="M936.38 854.63L922.12 850l14.26-4.63z" fill="#333"/><path d="M936.88 855.32L920.5 850l16.38-5.32zM923.74 850l12.14 3.95v-7.9z" stroke="#333" stroke-width=".05" fill="#333"/><use xlink:href="#B" transform="matrix(1,0,0,1,1328.9544001977968,840.4) translate(0 13.866666666666667)"/><path d="M1205.88 990.5h-269v-1h269zm207.02 0h-164.17v-1h163.17V711h1z" stroke="#333" stroke-width=".05" fill="#333"/><path d="M1412.9 711h-1v-.5h1z" fill="#333"/><path d="M1412.93 711.04h-1.05v-.56h1.05zm-1-.5v.45h.95v-.48z" stroke="#333" stroke-width=".05" fill="#333"/><path d="M936.38 994.63L922.12 990l14.26-4.63z" fill="#333"/><path d="M936.88 995.32L920.5 990l16.38-5.32zM923.74 990l12.14 3.95v-7.9z" stroke="#333" stroke-width=".05" fill="#333"/><use xlink:href="#D" transform="matrix(1,0,0,1,1205.8745810730065,980.4) translate(0 13.866666666666667)"/><path d="M1280 440h160v80h-160z" stroke="#333" fill="#fff"/><use xlink:href="#E" transform="matrix(1,0,0,1,1292,452) translate(35.78888888888889 31.366666666666667)"/><path d="M1100.5 610.5h-100v100h-63.62v-1h62.62v-100h100v-80.14h1zm178.5-130h-178.5v29.66h-1V479.5H1279z" stroke="#333" stroke-width=".05" fill="#333"/><path d="M1279.5 480.5h-.5v-1h.5z" fill="#333"/><path d="M1279.53 480.52h-.57v-1.04h.57zm-.52-1v.96h.47v-.96z" stroke="#333" stroke-width=".05" fill="#333"/><path d="M936.38 714.63L922.12 710l14.26-4.63z" fill="#333"/><path d="M936.88 715.32L920.5 710l16.38-5.32zM923.74 710l12.14 3.95v-7.9z" stroke="#333" stroke-width=".05" fill="#333"/><use xlink:href="#F" transform="matrix(1,0,0,1,1078.5740740740741,510.1609978719597) translate(0 13.866666666666667)"/><path d="M1095 819.16H936.87v-1h158.1zm208.33 0h-165.5v-1h164.5V521h1z" stroke="#333" stroke-width=".05" fill="#333"/><path d="M1303.33 521h-1v-.5h1z" fill="#333"/><path d="M1303.35 521.04h-1.05v-.56h1.05zm-1-.5v.45h.95v-.48z" stroke="#333" stroke-width=".05" fill="#333"/><path d="M936.38 823.3l-14.26-4.64 14.26-4.63z" fill="#333"/><path d="M936.88 824l-16.38-5.34 16.38-5.32zm-13.14-5.34l12.14 3.95v-7.9z" stroke="#333" stroke-width=".05" fill="#333"/><g><use xlink:href="#F" transform="matrix(1,0,0,1,1094.9922585893103,809.0611715236623) translate(0 13.866666666666667)"/></g><path d="M1250.5 641.4H1379v1h-129.5v-71.9h-201v-1h202zm-313.62-70.9v-1h73.9v1z" stroke="#333" stroke-width=".05" fill="#333"/><path d="M1379.5 642.4h-.5v-1h.5z" fill="#333"/><path d="M1379.53 642.42h-.57v-1.05h.57zm-.52-1v.95h.47v-.95z" stroke="#333" stroke-width=".05" fill="#333"/><path d="M936.38 574.63L922.12 570l14.26-4.63z" fill="#333"/><path d="M936.88 575.32L920.5 570l16.38-5.32zM923.74 570l12.14 3.95v-7.9z" stroke="#333" stroke-width=".05" fill="#333"/><g><use xlink:href="#B" transform="matrix(1,0,0,1,1010.7703443750169,560.4) translate(0 13.866666666666667)"/></g><defs><path fill="#333" d="M23 0v-37h61v-169l-59 37v-38l62-41h46v211h57V0H23" id="G"/><use transform="matrix(0.03703703703703704,0,0,0.03703703703703704,0,0)" xlink:href="#G" id="a"/><path fill="#333" d="M24 0v-248h195v40H76v63h132v40H76v65h150V0H24" id="H"/><path fill="#333" d="M128 0H69L1-190h53L99-40l48-150h52" id="I"/><path fill="#333" d="M185-48c-13 30-37 53-82 52C43 2 14-33 14-96s30-98 90-98c62 0 83 45 84 108H66c0 31 8 55 39 56 18 0 30-7 34-22zm-45-69c5-46-57-63-70-21-2 6-4 13-4 21h74" id="J"/><path fill="#333" d="M135-194c87-1 58 113 63 194h-50c-7-57 23-157-34-157-59 0-34 97-39 157H25l-1-190h47c2 12-1 28 3 38 12-26 28-41 61-42" id="K"/><path fill="#333" d="M115-3C79 11 28 4 28-45v-112H4v-33h27l15-45h31v45h36v33H77v99c-1 23 16 31 38 25v30" id="L"/><g id="b"><use transform="matrix(0.03703703703703704,0,0,0.03703703703703704,0,0)" xlink:href="#H"/><use transform="matrix(0.03703703703703704,0,0,0.03703703703703704,8.88888888888889,0)" xlink:href="#I"/><use transform="matrix(0.03703703703703704,0,0,0.03703703703703704,16.296296296296298,0)" xlink:href="#J"/><use transform="matrix(0.03703703703703704,0,0,0.03703703703703704,23.703703703703706,0)" xlink:href="#K"/><use transform="matrix(0.03703703703703704,0,0,0.03703703703703704,31.814814814814813,0)" xlink:href="#L"/></g><path fill="#333" d="M24-248c93 1 206-16 204 79-1 75-69 88-152 82V0H24v-248zm52 121c47 0 100 7 100-41 0-47-54-39-100-39v80" id="M"/><path fill="#333" d="M25 0v-261h50V0H25" id="N"/><path fill="#333" d="M133-34C117-15 103 5 69 4 32 3 11-16 11-54c-1-60 55-63 116-61 1-26-3-47-28-47-18 1-26 9-28 27l-52-2c7-38 36-58 82-57s74 22 75 68l1 82c-1 14 12 18 25 15v27c-30 8-71 5-69-32zm-48 3c29 0 43-24 42-57-32 0-66-3-65 30 0 17 8 27 23 27" id="O"/><path fill="#333" d="M25-224v-37h50v37H25zM25 0v-190h50V0H25" id="P"/><path fill="#333" d="M195-6C206 82 75 100 31 46c-4-6-6-13-8-21l49-6c3 16 16 24 34 25 40 0 42-37 40-79-11 22-30 35-61 35-53 0-70-43-70-97 0-56 18-96 73-97 30 0 46 14 59 34l2-30h47zm-90-29c32 0 41-27 41-63 0-35-9-62-40-62-32 0-39 29-40 63 0 36 9 62 39 62" id="Q"/><g id="c"><use transform="matrix(0.03703703703703704,0,0,0.03703703703703704,0,0)" xlink:href="#M"/><use transform="matrix(0.03703703703703704,0,0,0.03703703703703704,8.88888888888889,0)" xlink:href="#N"/><use transform="matrix(0.03703703703703704,0,0,0.03703703703703704,12.592592592592593,0)" xlink:href="#O"/><use transform="matrix(0.03703703703703704,0,0,0.03703703703703704,20,0)" xlink:href="#K"/><use transform="matrix(0.03703703703703704,0,0,0.03703703703703704,28.111111111111114,0)" xlink:href="#K"/><use transform="matrix(0.03703703703703704,0,0,0.03703703703703704,36.22222222222223,0)" xlink:href="#P"/><use transform="matrix(0.03703703703703704,0,0,0.03703703703703704,39.92592592592593,0)" xlink:href="#K"/><use transform="matrix(0.03703703703703704,0,0,0.03703703703703704,48.037037037037045,0)" xlink:href="#Q"/></g><path fill="#333" d="M182-182c0 78-84 86-111 141h115V0H12c-6-101 99-100 120-180 1-22-12-31-33-32-23 0-32 14-35 34l-49-3c5-45 32-70 84-70 51 0 83 22 83 69" id="R"/><use transform="matrix(0.03703703703703704,0,0,0.03703703703703704,0,0)" xlink:href="#R" id="d"/><path fill="#333" d="M67-125c0 53 21 87 73 88 37 1 54-22 65-47l45 17C233-25 199 4 140 4 58 4 20-42 15-125 8-235 124-281 211-232c18 10 29 29 36 50l-46 12c-8-25-30-41-62-41-52 0-71 34-72 86" id="S"/><path fill="#333" d="M85 4C-2 5 27-109 22-190h50c7 57-23 150 33 157 60-5 35-97 40-157h50l1 190h-47c-2-12 1-28-3-38-12 25-28 42-61 42" id="T"/><path fill="#333" d="M137-138c1-29-70-34-71-4 15 46 118 7 119 86 1 83-164 76-172 9l43-7c4 19 20 25 44 25 33 8 57-30 24-41C81-84 22-81 20-136c-2-80 154-74 161-7" id="U"/><path fill="#333" d="M110-194c64 0 96 36 96 99 0 64-35 99-97 99-61 0-95-36-95-99 0-62 34-99 96-99zm-1 164c35 0 45-28 45-65 0-40-10-65-43-65-34 0-45 26-45 65 0 36 10 65 43 65" id="V"/><path fill="#333" d="M220-157c-53 9-28 100-34 157h-49v-107c1-27-5-49-29-50C55-147 81-57 75 0H25l-1-190h47c2 12-1 28 3 38 10-53 101-56 108 0 13-22 24-43 59-42 82 1 51 116 57 194h-49v-107c-1-25-5-48-29-50" id="W"/><path fill="#333" d="M12 0v-35l95-120H19v-35h142v35L67-36h103V0H12" id="X"/><path fill="#333" d="M88-194c31-1 46 15 58 34l-1-101h50l1 261h-48c-2-10 0-23-3-31C134-8 116 4 84 4 32 4 16-41 15-95c0-56 19-97 73-99zm17 164c33 0 40-30 41-66 1-37-9-64-41-64s-38 30-39 65c0 43 13 65 39 65" id="Y"/><g id="e"><use transform="matrix(0.03703703703703704,0,0,0.03703703703703704,0,0)" xlink:href="#S"/><use transform="matrix(0.03703703703703704,0,0,0.03703703703703704,9.592592592592593,0)" xlink:href="#T"/><use transform="matrix(0.03703703703703704,0,0,0.03703703703703704,17.703703703703706,0)" xlink:href="#U"/><use transform="matrix(0.03703703703703704,0,0,0.03703703703703704,25.111111111111114,0)" xlink:href="#L"/><use transform="matrix(0.03703703703703704,0,0,0.03703703703703704,29.518518518518523,0)" xlink:href="#V"/><use transform="matrix(0.03703703703703704,0,0,0.03703703703703704,37.62962962962963,0)" xlink:href="#W"/><use transform="matrix(0.03703703703703704,0,0,0.03703703703703704,49.48148148148149,0)" xlink:href="#P"/><use transform="matrix(0.03703703703703704,0,0,0.03703703703703704,53.18518518518519,0)" xlink:href="#X"/><use transform="matrix(0.03703703703703704,0,0,0.03703703703703704,59.85185185185186,0)" xlink:href="#J"/><use transform="matrix(0.03703703703703704,0,0,0.03703703703703704,67.25925925925927,0)" xlink:href="#Y"/></g><path fill="#333" d="M135-150c-39-12-60 13-60 57V0H25l-1-190h47c2 13-1 29 3 40 6-28 27-53 61-41v41" id="Z"/><path fill="#333" d="M190-63c-7 42-38 67-86 67-59 0-84-38-90-98-12-110 154-137 174-36l-49 2c-2-19-15-32-35-32-30 0-35 28-38 64-6 74 65 87 74 30" id="aa"/><g id="f"><use transform="matrix(0.03703703703703704,0,0,0.03703703703703704,0,0)" xlink:href="#M"/><use transform="matrix(0.03703703703703704,0,0,0.03703703703703704,8.88888888888889,0)" xlink:href="#Z"/><use transform="matrix(0.03703703703703704,0,0,0.03703703703703704,14.074074074074076,0)" xlink:href="#V"/><use transform="matrix(0.03703703703703704,0,0,0.03703703703703704,22.185185185185194,0)" xlink:href="#aa"/><use transform="matrix(0.03703703703703704,0,0,0.03703703703703704,29.592592592592602,0)" xlink:href="#J"/><use transform="matrix(0.03703703703703704,0,0,0.03703703703703704,37.00000000000001,0)" xlink:href="#U"/><use transform="matrix(0.03703703703703704,0,0,0.03703703703703704,44.40740740740742,0)" xlink:href="#U"/></g><path fill="#333" d="M168-19C124 19 11 11 16-68c3-43 29-60 59-75-25-44-12-111 53-106 37 3 64 15 64 52 0 43-40 52-69 68 12 22 27 41 43 59 14-19 21-38 28-64l37 13c-8 29-19 52-34 74 12 10 32 16 52 10v35c-28 11-65-2-81-17zm-58-139c19-9 43-14 43-39 0-14-10-22-25-22-34 0-33 41-18 61zM60-68c-3 40 55 47 79 25-18-20-34-42-48-67-18 8-30 20-31 42" id="ab"/><use transform="matrix(0.03703703703703704,0,0,0.03703703703703704,0,0)" xlink:href="#ab" id="g"/><path fill="#333" d="M169-182c-1-43-94-46-97-3 18 66 151 10 154 114 3 95-165 93-204 36-6-8-10-19-12-30l50-8c3 46 112 56 116 5-17-69-150-10-154-114-4-87 153-88 188-35 5 8 8 18 10 28" id="ac"/><path fill="#333" d="M114-157C55-157 80-60 75 0H25v-261h50l-1 109c12-26 28-41 61-42 86-1 58 113 63 194h-50c-7-57 23-157-34-157" id="ad"/><g id="h"><use transform="matrix(0.03703703703703704,0,0,0.03703703703703704,0,0)" xlink:href="#ac"/><use transform="matrix(0.03703703703703704,0,0,0.03703703703703704,8.88888888888889,0)" xlink:href="#aa"/><use transform="matrix(0.03703703703703704,0,0,0.03703703703703704,16.296296296296298,0)" xlink:href="#ad"/><use transform="matrix(0.03703703703703704,0,0,0.03703703703703704,24.407407407407412,0)" xlink:href="#J"/><use transform="matrix(0.03703703703703704,0,0,0.03703703703703704,31.81481481481482,0)" xlink:href="#Y"/><use transform="matrix(0.03703703703703704,0,0,0.03703703703703704,39.92592592592593,0)" xlink:href="#T"/><use transform="matrix(0.03703703703703704,0,0,0.03703703703703704,48.037037037037045,0)" xlink:href="#N"/><use transform="matrix(0.03703703703703704,0,0,0.03703703703703704,51.74074074074075,0)" xlink:href="#J"/></g><path fill="#333" d="M128-127c34 4 56 21 59 58 7 91-148 94-172 28-4-9-6-17-7-26l51-5c1 24 16 35 40 36 23 0 39-12 38-36-1-31-31-36-65-34v-40c32 2 59-3 59-33 0-20-13-33-34-33s-33 13-35 32l-50-3c6-44 37-68 86-68 50 0 83 20 83 66 0 35-22 52-53 58" id="ae"/><use transform="matrix(0.03703703703703704,0,0,0.03703703703703704,0,0)" xlink:href="#ae" id="i"/><path fill="#333" d="M182-130c37 4 62 22 62 59C244 23 116-4 24 0v-248c84 5 203-23 205 63 0 31-19 50-47 55zM76-148c40-3 101 13 101-30 0-44-60-28-101-31v61zm0 110c48-3 116 14 116-37 0-48-69-32-116-35v72" id="af"/><g id="j"><use transform="matrix(0.03703703703703704,0,0,0.03703703703703704,0,0)" xlink:href="#af"/><use transform="matrix(0.03703703703703704,0,0,0.03703703703703704,9.592592592592593,0)" xlink:href="#T"/><use transform="matrix(0.03703703703703704,0,0,0.03703703703703704,17.703703703703706,0)" xlink:href="#Y"/><use transform="matrix(0.03703703703703704,0,0,0.03703703703703704,25.814814814814817,0)" xlink:href="#Q"/><use transform="matrix(0.03703703703703704,0,0,0.03703703703703704,33.92592592592593,0)" xlink:href="#J"/><use transform="matrix(0.03703703703703704,0,0,0.03703703703703704,41.333333333333336,0)" xlink:href="#L"/></g><path fill="#333" d="M230 0l2-204L168 0h-37L68-204 70 0H24v-248h70l56 185 57-185h69V0h-46" id="ag"/><g id="k"><use transform="matrix(0.03703703703703704,0,0,0.03703703703703704,0,0)" xlink:href="#ag"/><use transform="matrix(0.03703703703703704,0,0,0.03703703703703704,11.074074074074076,0)" xlink:href="#O"/><use transform="matrix(0.03703703703703704,0,0,0.03703703703703704,18.481481481481485,0)" xlink:href="#K"/><use transform="matrix(0.03703703703703704,0,0,0.03703703703703704,26.592592592592595,0)" xlink:href="#O"/><use transform="matrix(0.03703703703703704,0,0,0.03703703703703704,34,0)" xlink:href="#Q"/><use transform="matrix(0.03703703703703704,0,0,0.03703703703703704,42.111111111111114,0)" xlink:href="#J"/><use transform="matrix(0.03703703703703704,0,0,0.03703703703703704,49.51851851851852,0)" xlink:href="#W"/><use transform="matrix(0.03703703703703704,0,0,0.03703703703703704,61.37037037037037,0)" xlink:href="#J"/><use transform="matrix(0.03703703703703704,0,0,0.03703703703703704,68.77777777777779,0)" xlink:href="#K"/><use transform="matrix(0.03703703703703704,0,0,0.03703703703703704,76.8888888888889,0)" xlink:href="#L"/></g><path fill="#333" d="M165-50V0h-47v-50H5v-38l105-160h55v161h33v37h-33zm-47-37l2-116L46-87h72" id="ah"/><use transform="matrix(0.03703703703703704,0,0,0.03703703703703704,0,0)" xlink:href="#ah" id="l"/><path fill="#333" d="M186 0v-106H76V0H24v-248h52v99h110v-99h50V0h-50" id="ai"/><g id="m"><use transform="matrix(0.03703703703703704,0,0,0.03703703703703704,0,0)" xlink:href="#ai"/><use transform="matrix(0.03703703703703704,0,0,0.03703703703703704,9.592592592592593,0)" xlink:href="#V"/><use transform="matrix(0.03703703703703704,0,0,0.03703703703703704,17.703703703703706,0)" xlink:href="#U"/><use transform="matrix(0.03703703703703704,0,0,0.03703703703703704,25.111111111111114,0)" xlink:href="#L"/></g><path fill="#333" d="M139-81c0-46-55-55-73-27H18l9-140h149v37H72l-4 63c44-38 133-4 122 66C201 21 21 35 11-62l49-4c5 18 15 30 39 30 26 0 40-18 40-45" id="aj"/><use transform="matrix(0.03703703703703704,0,0,0.03703703703703704,0,0)" xlink:href="#aj" id="n"/><path fill="#333" d="M24 0v-248h52v208h133V0H24" id="ak"/><g id="o"><use transform="matrix(0.03703703703703704,0,0,0.03703703703703704,0,0)" xlink:href="#ak"/><use transform="matrix(0.03703703703703704,0,0,0.03703703703703704,8.111111111111112,0)" xlink:href="#V"/><use transform="matrix(0.03703703703703704,0,0,0.03703703703703704,16.222222222222225,0)" xlink:href="#Q"/><use transform="matrix(0.03703703703703704,0,0,0.03703703703703704,24.333333333333336,0)" xlink:href="#P"/><use transform="matrix(0.03703703703703704,0,0,0.03703703703703704,28.037037037037038,0)" xlink:href="#U"/><use transform="matrix(0.03703703703703704,0,0,0.03703703703703704,35.44444444444444,0)" xlink:href="#L"/><use transform="matrix(0.03703703703703704,0,0,0.03703703703703704,39.85185185185185,0)" xlink:href="#P"/><use transform="matrix(0.03703703703703704,0,0,0.03703703703703704,43.55555555555555,0)" xlink:href="#aa"/><use transform="matrix(0.03703703703703704,0,0,0.03703703703703704,50.96296296296296,0)" xlink:href="#U"/></g><path fill="#333" d="M115-159c48 0 72 30 72 78 0 54-30 85-83 85-64 0-91-50-91-122 0-98 58-163 141-120 15 8 21 24 27 44l-47 6c-5-31-48-31-61-4-7 14-11 33-11 60 9-17 28-27 53-27zM102-35c24 0 36-20 36-45s-11-43-37-43c-23 0-36 14-36 38 0 27 11 50 37 50" id="al"/><use transform="matrix(0.03703703703703704,0,0,0.03703703703703704,0,0)" xlink:href="#al" id="p"/><g id="q"><use transform="matrix(0.03703703703703704,0,0,0.03703703703703704,0,0)" xlink:href="#ai"/><use transform="matrix(0.03703703703703704,0,0,0.03703703703703704,9.592592592592593,0)" xlink:href="#T"/><use transform="matrix(0.03703703703703704,0,0,0.03703703703703704,17.703703703703706,0)" xlink:href="#W"/><use transform="matrix(0.03703703703703704,0,0,0.03703703703703704,29.555555555555554,0)" xlink:href="#O"/><use transform="matrix(0.03703703703703704,0,0,0.03703703703703704,36.96296296296296,0)" xlink:href="#K"/></g><path fill="#333" d="M240-174c0 40-23 61-54 70L253 0h-59l-57-94H76V0H24v-248c93 4 217-23 216 74zM76-134c48-2 112 12 112-38 0-48-66-32-112-35v73" id="am"/><g id="r"><use transform="matrix(0.03703703703703704,0,0,0.03703703703703704,0,0)" xlink:href="#am"/><use transform="matrix(0.03703703703703704,0,0,0.03703703703703704,9.592592592592593,0)" xlink:href="#J"/><use transform="matrix(0.03703703703703704,0,0,0.03703703703703704,17,0)" xlink:href="#U"/><use transform="matrix(0.03703703703703704,0,0,0.03703703703703704,24.407407407407405,0)" xlink:href="#V"/><use transform="matrix(0.03703703703703704,0,0,0.03703703703703704,32.51851851851852,0)" xlink:href="#T"/><use transform="matrix(0.03703703703703704,0,0,0.03703703703703704,40.62962962962963,0)" xlink:href="#Z"/><use transform="matrix(0.03703703703703704,0,0,0.03703703703703704,45.814814814814824,0)" xlink:href="#aa"/><use transform="matrix(0.03703703703703704,0,0,0.03703703703703704,53.22222222222223,0)" xlink:href="#J"/></g><path fill="#333" d="M199 0l-22-63H83L61 0H9l90-248h61L250 0h-51zm-33-102l-36-108c-10 38-24 72-36 108h72" id="an"/><g id="s"><use transform="matrix(0.03703703703703704,0,0,0.03703703703703704,0,0)" xlink:href="#an"/><use transform="matrix(0.03703703703703704,0,0,0.03703703703703704,9.592592592592593,0)" xlink:href="#N"/><use transform="matrix(0.03703703703703704,0,0,0.03703703703703704,13.296296296296298,0)" xlink:href="#N"/><use transform="matrix(0.03703703703703704,0,0,0.03703703703703704,17,0)" xlink:href="#V"/><use transform="matrix(0.03703703703703704,0,0,0.03703703703703704,25.111111111111114,0)" xlink:href="#aa"/><use transform="matrix(0.03703703703703704,0,0,0.03703703703703704,32.51851851851852,0)" xlink:href="#O"/><use transform="matrix(0.03703703703703704,0,0,0.03703703703703704,39.925925925925924,0)" xlink:href="#L"/><use transform="matrix(0.03703703703703704,0,0,0.03703703703703704,44.33333333333333,0)" xlink:href="#P"/><use transform="matrix(0.03703703703703704,0,0,0.03703703703703704,48.03703703703704,0)" xlink:href="#V"/><use transform="matrix(0.03703703703703704,0,0,0.03703703703703704,56.148148148148145,0)" xlink:href="#K"/></g><path fill="#333" d="M52 0c1-96 47-148 87-207H15v-41h169v40c-36 62-79 113-81 208H52" id="ao"/><use transform="matrix(0.03703703703703704,0,0,0.03703703703703704,0,0)" xlink:href="#ao" id="t"/><path fill="#333" d="M140-251c80 0 125 45 125 126S219 4 139 4C58 4 15-44 15-125s44-126 125-126zm-1 214c52 0 73-35 73-88 0-50-21-86-72-86-52 0-73 35-73 86s22 88 72 88" id="ap"/><g id="u"><use transform="matrix(0.03703703703703704,0,0,0.03703703703703704,0,0)" xlink:href="#ap"/><use transform="matrix(0.03703703703703704,0,0,0.03703703703703704,10.370370370370372,0)" xlink:href="#K"/><use transform="matrix(0.03703703703703704,0,0,0.03703703703703704,18.481481481481485,0)" xlink:href="#U"/><use transform="matrix(0.03703703703703704,0,0,0.03703703703703704,25.888888888888893,0)" xlink:href="#P"/><use transform="matrix(0.03703703703703704,0,0,0.03703703703703704,29.592592592592595,0)" xlink:href="#L"/><use transform="matrix(0.03703703703703704,0,0,0.03703703703703704,34,0)" xlink:href="#J"/></g><g id="v"><use transform="matrix(0.03703703703703704,0,0,0.03703703703703704,0,0)" xlink:href="#ag"/><use transform="matrix(0.03703703703703704,0,0,0.03703703703703704,11.074074074074076,0)" xlink:href="#V"/><use transform="matrix(0.03703703703703704,0,0,0.03703703703703704,19.18518518518519,0)" xlink:href="#K"/><use transform="matrix(0.03703703703703704,0,0,0.03703703703703704,27.296296296296305,0)" xlink:href="#P"/><use transform="matrix(0.03703703703703704,0,0,0.03703703703703704,31.000000000000007,0)" xlink:href="#L"/><use transform="matrix(0.03703703703703704,0,0,0.03703703703703704,35.40740740740742,0)" xlink:href="#V"/><use transform="matrix(0.03703703703703704,0,0,0.03703703703703704,43.51851851851853,0)" xlink:href="#Z"/><use transform="matrix(0.03703703703703704,0,0,0.03703703703703704,48.70370370370372,0)" xlink:href="#P"/><use transform="matrix(0.03703703703703704,0,0,0.03703703703703704,52.407407407407426,0)" xlink:href="#K"/><use transform="matrix(0.03703703703703704,0,0,0.03703703703703704,60.51851851851853,0)" xlink:href="#Q"/></g><path fill="#333" d="M138-131c27 9 52 24 51 61 0 53-36 74-89 74S11-19 11-69c0-35 22-54 51-61-78-25-46-121 38-121 51 0 83 19 83 66 0 30-18 49-45 54zm-38-16c24 0 32-13 32-36 1-23-11-34-32-34-22 0-33 12-32 34 0 22 9 36 32 36zm1 116c27 0 37-17 37-43 0-25-13-39-39-39-24 0-37 15-37 40 0 27 11 42 39 42" id="aq"/><use transform="matrix(0.03703703703703704,0,0,0.03703703703703704,0,0)" xlink:href="#aq" id="w"/><path fill="#333" d="M135-194c53 0 70 44 70 98 0 56-19 98-73 100-31 1-45-17-59-34 3 33 2 69 2 105H25l-1-265h48c2 10 0 23 3 31 11-24 29-35 60-35zM114-30c33 0 39-31 40-66 0-38-9-64-40-64-56 0-55 130 0 130" id="ar"/><g id="x"><use transform="matrix(0.03703703703703704,0,0,0.03703703703703704,0,0)" xlink:href="#ac"/><use transform="matrix(0.03703703703703704,0,0,0.03703703703703704,8.88888888888889,0)" xlink:href="#ar"/><use transform="matrix(0.03703703703703704,0,0,0.03703703703703704,17,0)" xlink:href="#V"/><use transform="matrix(0.03703703703703704,0,0,0.03703703703703704,25.111111111111114,0)" xlink:href="#K"/><use transform="matrix(0.03703703703703704,0,0,0.03703703703703704,33.22222222222223,0)" xlink:href="#U"/><use transform="matrix(0.03703703703703704,0,0,0.03703703703703704,40.62962962962963,0)" xlink:href="#V"/><use transform="matrix(0.03703703703703704,0,0,0.03703703703703704,48.74074074074075,0)" xlink:href="#Z"/></g><g id="y"><use transform="matrix(0.03703703703703704,0,0,0.03703703703703704,0,0)" xlink:href="#ag"/><use transform="matrix(0.03703703703703704,0,0,0.03703703703703704,11.074074074074076,0)" xlink:href="#O"/><use transform="matrix(0.03703703703703704,0,0,0.03703703703703704,18.481481481481485,0)" xlink:href="#K"/><use transform="matrix(0.03703703703703704,0,0,0.03703703703703704,26.592592592592595,0)" xlink:href="#O"/><use transform="matrix(0.03703703703703704,0,0,0.03703703703703704,34,0)" xlink:href="#Q"/><use transform="matrix(0.03703703703703704,0,0,0.03703703703703704,42.111111111111114,0)" xlink:href="#J"/><use transform="matrix(0.03703703703703704,0,0,0.03703703703703704,49.51851851851852,0)" xlink:href="#Z"/></g><g id="z"><use transform="matrix(0.03703703703703704,0,0,0.03703703703703704,0,0)" xlink:href="#W"/><use transform="matrix(0.03703703703703704,0,0,0.03703703703703704,11.851851851851853,0)" xlink:href="#O"/><use transform="matrix(0.03703703703703704,0,0,0.03703703703703704,19.259259259259256,0)" xlink:href="#K"/><use transform="matrix(0.03703703703703704,0,0,0.03703703703703704,27.370370370370374,0)" xlink:href="#O"/><use transform="matrix(0.03703703703703704,0,0,0.03703703703703704,34.777777777777786,0)" xlink:href="#Q"/><use transform="matrix(0.03703703703703704,0,0,0.03703703703703704,42.8888888888889,0)" xlink:href="#J"/></g><g id="A"><use transform="matrix(0.03703703703703704,0,0,0.03703703703703704,0,0)" xlink:href="#Y"/><use transform="matrix(0.03703703703703704,0,0,0.03703703703703704,8.111111111111112,0)" xlink:href="#P"/><use transform="matrix(0.03703703703703704,0,0,0.03703703703703704,11.814814814814817,0)" xlink:href="#U"/><use transform="matrix(0.03703703703703704,0,0,0.03703703703703704,19.222222222222225,0)" xlink:href="#aa"/><use transform="matrix(0.03703703703703704,0,0,0.03703703703703704,26.629629629629633,0)" xlink:href="#T"/><use transform="matrix(0.03703703703703704,0,0,0.03703703703703704,34.74074074074075,0)" xlink:href="#U"/><use transform="matrix(0.03703703703703704,0,0,0.03703703703703704,42.14814814814815,0)" xlink:href="#U"/></g><path fill="#333" d="M147 0L96-86 75-71V0H25v-261h50v150l67-79h53l-66 74L201 0h-54" id="as"/><g id="B"><use transform="matrix(0.03703703703703704,0,0,0.03703703703703704,0,0)" xlink:href="#aa"/><use transform="matrix(0.03703703703703704,0,0,0.03703703703703704,7.407407407407408,0)" xlink:href="#ad"/><use transform="matrix(0.03703703703703704,0,0,0.03703703703703704,15.51851851851852,0)" xlink:href="#J"/><use transform="matrix(0.03703703703703704,0,0,0.03703703703703704,22.925925925925927,0)" xlink:href="#aa"/><use transform="matrix(0.03703703703703704,0,0,0.03703703703703704,30.333333333333336,0)" xlink:href="#as"/></g><g id="C"><use transform="matrix(0.03703703703703704,0,0,0.03703703703703704,0,0)" xlink:href="#an"/><use transform="matrix(0.03703703703703704,0,0,0.03703703703703704,9.592592592592593,0)" xlink:href="#Y"/><use transform="matrix(0.03703703703703704,0,0,0.03703703703703704,17.703703703703706,0)" xlink:href="#W"/><use transform="matrix(0.03703703703703704,0,0,0.03703703703703704,29.555555555555554,0)" xlink:href="#P"/><use transform="matrix(0.03703703703703704,0,0,0.03703703703703704,33.25925925925926,0)" xlink:href="#K"/></g><g id="D"><use transform="matrix(0.03703703703703704,0,0,0.03703703703703704,0,0)" xlink:href="#ad"/><use transform="matrix(0.03703703703703704,0,0,0.03703703703703704,8.111111111111112,0)" xlink:href="#O"/><use transform="matrix(0.03703703703703704,0,0,0.03703703703703704,15.51851851851852,0)" xlink:href="#K"/><use transform="matrix(0.03703703703703704,0,0,0.03703703703703704,23.629629629629633,0)" xlink:href="#Y"/><use transform="matrix(0.03703703703703704,0,0,0.03703703703703704,31.740740740740748,0)" xlink:href="#N"/><use transform="matrix(0.03703703703703704,0,0,0.03703703703703704,35.44444444444445,0)" xlink:href="#J"/></g><g id="E"><use transform="matrix(0.03703703703703704,0,0,0.03703703703703704,0,0)" xlink:href="#ac"/><use transform="matrix(0.03703703703703704,0,0,0.03703703703703704,8.88888888888889,0)" xlink:href="#T"/><use transform="matrix(0.03703703703703704,0,0,0.03703703703703704,17,0)" xlink:href="#ar"/><use transform="matrix(0.03703703703703704,0,0,0.03703703703703704,25.111111111111114,0)" xlink:href="#ar"/><use transform="matrix(0.03703703703703704,0,0,0.03703703703703704,33.22222222222223,0)" xlink:href="#N"/><use transform="matrix(0.03703703703703704,0,0,0.03703703703703704,36.92592592592593,0)" xlink:href="#P"/><use transform="matrix(0.03703703703703704,0,0,0.03703703703703704,40.62962962962963,0)" xlink:href="#J"/><use transform="matrix(0.03703703703703704,0,0,0.03703703703703704,48.03703703703704,0)" xlink:href="#Z"/></g><path fill="#333" d="M123 10C108 53 80 86 19 72V37c35 8 53-11 59-39L3-190h52l48 148c12-52 28-100 44-148h51" id="at"/><g id="F"><use transform="matrix(0.03703703703703704,0,0,0.03703703703703704,0,0)" xlink:href="#U"/><use transform="matrix(0.03703703703703704,0,0,0.03703703703703704,7.407407407407408,0)" xlink:href="#T"/><use transform="matrix(0.03703703703703704,0,0,0.03703703703703704,15.51851851851852,0)" xlink:href="#ar"/><use transform="matrix(0.03703703703703704,0,0,0.03703703703703704,23.629629629629633,0)" xlink:href="#ar"/><use transform="matrix(0.03703703703703704,0,0,0.03703703703703704,31.740740740740748,0)" xlink:href="#N"/><use transform="matrix(0.03703703703703704,0,0,0.03703703703703704,35.44444444444445,0)" xlink:href="#at"/></g></defs></g></svg>